# xmcd CD database file
#
# Track frame offsets:
#	150
#	15062
#	32885
#	50816
#	69000
#	85450
#	102705
#	119731
#	138661
#	154600
#	170687
#	187123
#	202550
#	220602
#
# Disc length: 3306 seconds
#
# Revision: 3
# Processed by: cddbd v1.5.1PL2 Copyright (c) Steve Scherf et al.
# Submitted via: cdripper 1,0,33,916
#
DISCID=c20ce80e
DTITLE=Sugababes - Angels With Dirty Faces
DYEAR=2002
DGENRE=R&B
TTITLE0=Freak.Like.Me.007
TTITLE1=Blue.007
TTITLE2=Round.Round.007
TTITLE3=Stronger.007
TTITLE4=Supernatural.007
TTITLE5=Angels.With.Dirty.Faces.007
TTITLE6=Virgin.Sexy.007
TTITLE7=Shape.007
TTITLE8=Just.Don't.Need.This.007
TTITLE9=No.Man,No.Cry.007
TTITLE10=Switch.007
TTITLE11=More.Than.A.Million.Miles.007
TTITLE12=Breath.Easy.(Acoustic.Jam).007
TTITLE13=Round.Round.(Alt.Mix).007
EXTD=YEAR: 2002
EXTT0=
EXTT1=
EXTT2=
EXTT3=
EXTT4=
EXTT5=
EXTT6=
EXTT7=
EXTT8=
EXTT9=
EXTT10=
EXTT11=
EXTT12=
EXTT13=
PLAYORDER=
